####
#
# OBJ File Generated by Meshlab
#
####
# Object tibia_l.obj
#
# Vertices: 145
# Faces: 286
#
####
vn 0.099885 0.602435 0.081219
v 0.006000 -0.031255 0.003181
vn 0.036532 0.245798 -0.215230
v 0.023854 -0.040317 -0.018777
vn 0.558593 0.640644 -0.184218
v 0.030512 -0.041855 -0.003937
vn 0.643697 0.738249 -0.212285
v 0.016460 -0.031255 -0.009683
vn 1.089509 0.577060 -1.599886
v 0.027593 -0.033990 -0.003088
vn -0.498711 1.782482 0.423332
v 0.006000 -0.028520 -0.008335
vn 0.045795 0.760327 0.174001
v 0.027593 -0.033990 0.009449
vn -0.103942 0.666555 0.269697
v 0.016009 -0.034675 0.015491
vn -0.093338 1.285555 0.000000
v -0.026973 -0.033649 0.012754
vn -0.064941 0.656984 0.059376
v -0.026973 -0.033649 -0.006393
vn 0.716166 0.016048 -0.319646
v 0.030804 -0.056559 -0.004021
vn 1.576197 0.031301 0.000000
v 0.030512 -0.041855 0.010298
vn -0.467245 0.792624 -0.898360
v -0.007977 -0.031083 -0.014009
vn -0.345607 0.586280 -0.664490
v -0.015821 -0.046642 -0.023657
vn -0.332324 0.563449 -0.638469
v 0.006000 -0.038777 -0.028074
vn 0.071097 1.159828 -0.694475
v 0.006000 -0.035359 0.013324
vn -0.104623 0.466905 -0.279571
v -0.007525 -0.034503 0.019815
vn -0.269596 1.203139 -0.720409
v 0.006000 -0.031255 0.020178
vn -0.172648 0.159233 0.160314
v -0.031351 -0.054507 0.014025
vn -0.086554 0.304109 0.503859
v -0.011132 -0.042881 0.024252
vn 0.748256 0.016497 0.286709
v 0.024576 -0.045959 0.026026
vn 0.830467 0.858041 0.537325
v 0.019165 -0.036555 0.019372
vn 0.861578 0.078863 -1.536261
v 0.024485 -0.052627 -0.019554
vn 0.480191 0.030631 -0.477930
v 0.038683 -0.068529 -0.006308
vn 1.444259 0.950653 0.000000
v 0.030804 -0.056559 0.010382
vn 1.064088 0.238540 0.261993
v 0.027371 -0.062202 0.029463
vn -0.091565 -0.034682 -0.317860
v 0.006000 -0.048694 -0.029719
vn 0.345912 0.370325 0.242081
v 0.006000 -0.035359 0.036354
vn -0.656062 -0.640107 0.969751
v -0.027850 -0.059636 0.013008
vn -1.163297 -0.794054 0.000000
v -0.031351 -0.054507 -0.007664
vn 0.110872 -0.154069 -0.594001
v 0.006000 -0.068186 -0.023687
vn 0.464889 -0.263415 -0.791599
v 0.024937 -0.068357 -0.020108
vn 1.638527 0.037980 0.000000
v 0.038683 -0.068529 0.012669
vn 0.900408 0.020871 0.000000
v 0.039000 -0.082205 0.013603
vn 1.173135 0.302167 0.676355
v 0.028633 -0.070580 0.031017
vn 0.644453 0.380477 1.422978
v 0.006000 -0.058953 0.038273
vn -0.726362 -0.627829 -0.768750
v -0.015280 -0.054165 -0.022992
vn -0.158024 -0.484690 -0.537437
v 0.022682 -0.080667 -0.017336
vn -0.362511 -0.429518 1.880818
v -0.015371 -0.047497 0.029463
vn -0.151764 -0.179816 0.787395
v -0.013477 -0.059294 0.027134
vn -0.169563 -0.995354 0.862873
v -0.020554 -0.062715 0.010890
vn -0.137418 -0.344567 -0.027523
v -0.011042 -0.065450 -0.017780
vn -0.304115 -0.762549 -0.060909
v -0.027850 -0.059636 -0.006647
vn -0.799561 0.222495 0.832126
v 0.006000 -0.055875 0.037450
vn 0.757064 -0.024593 0.000000
v 0.039000 -0.082205 -0.007241
vn 0.865037 -0.028100 0.000000
v 0.038389 -0.101014 0.012585
vn 0.525095 -0.051175 0.630366
v 0.024304 -0.084087 0.025692
vn -1.069811 -0.399531 1.648986
v -0.011312 -0.069554 0.024473
vn -0.169769 -0.416664 -0.708317
v 0.006000 -0.079129 -0.013818
vn -0.358844 -0.152426 -1.373680
v -0.005362 -0.079642 -0.010793
vn -1.172894 -0.666562 -1.043210
v -0.012676 -0.080155 -0.002242
vn -0.338965 -0.192636 -0.301487
v -0.020554 -0.062715 -0.004528
vn -0.248534 -0.019784 -0.641071
v 0.019616 -0.117256 -0.013565
vn 1.121067 -0.189499 0.000000
v 0.038389 -0.101014 -0.006224
vn 0.507162 -0.276836 0.902524
v 0.019797 -0.110418 0.020148
vn -0.301411 -0.166661 1.036584
v 0.006000 -0.083575 0.020452
vn -0.223300 -0.360726 0.744771
v 0.006000 -0.067159 0.028403
vn 0.152382 -0.130859 0.270178
v -0.007256 -0.101014 0.019482
vn 0.027469 -0.039767 0.339567
v -0.004641 -0.126660 0.016267
vn -0.844506 -0.048227 -2.552345
v 0.017092 -0.186161 -0.010460
vn -0.072462 -0.028121 -1.488252
v 0.006000 -0.133499 -0.007785
vn -1.387173 -0.066605 0.000000
v -0.010049 -0.134867 -0.001480
vn -1.387173 -0.066605 0.000000
v -0.012676 -0.080155 0.008602
vn -0.261136 0.000000 0.000000
v -0.010049 -0.134867 0.007841
vn 1.373185 -0.166542 0.000000
v 0.024092 -0.204625 0.008433
vn 1.594072 -0.193331 0.000000
v 0.024092 -0.204625 -0.002072
vn 1.373185 -0.166542 0.000000
v 0.032262 -0.137261 -0.004445
vn 0.146818 -0.030394 0.357345
v 0.032262 -0.137261 0.010806
vn 0.196621 -0.050017 0.406069
v 0.015558 -0.169404 0.014935
vn -0.526959 -0.162865 2.271343
v 0.006000 -0.134183 0.015243
vn -2.080480 -0.131388 2.007146
v -0.010049 -0.169746 0.007841
vn -0.183338 -0.009045 0.000000
v -0.007569 -0.220015 0.007121
vn -0.017484 -0.003436 0.050811
v -0.005088 -0.270283 0.006401
vn -0.986864 -0.193934 2.867887
v -0.001394 -0.202231 0.012274
vn -0.924501 -0.021992 -1.180100
v -0.002566 -0.134183 -0.007355
vn -0.031536 0.002077 -0.175170
v 0.006000 -0.304476 -0.006689
vn -0.076413 0.005032 -0.424450
v 0.006000 -0.235059 -0.005866
vn 0.022269 0.001906 -0.160763
v -0.001935 -0.202403 -0.006578
vn -0.044278 -0.002618 -0.030237
v -0.010049 -0.169746 -0.001480
vn 2.113386 0.005218 -1.377079
v 0.019423 -0.271990 -0.000716
vn 0.144260 0.000356 -0.094000
v 0.014927 -0.320036 -0.007798
vn 0.374471 0.000925 -0.244005
v 0.014837 -0.254550 -0.007688
vn 0.004470 -0.001198 0.109908
v -0.002747 -0.286523 0.013938
vn -0.813648 -0.060375 -2.645683
v -0.000673 -0.287377 -0.005027
vn -2.300833 -0.136054 -1.570576
v -0.005088 -0.270283 -0.000040
vn -0.077121 -0.004560 -0.052644
v -0.007569 -0.220015 -0.000760
vn -0.279529 0.145894 -1.675166
v 0.018624 -0.365173 -0.012346
vn -0.193741 0.101119 -1.161054
v 0.006641 -0.368004 -0.010593
vn 0.314903 0.010111 -0.268514
v 0.021174 -0.340039 -0.001225
vn 0.120229 0.003090 0.110638
v 0.014566 -0.320720 0.013717
vn 1.891131 0.048604 1.740273
v 0.019423 -0.271990 0.007078
vn 0.031757 0.002932 0.171895
v 0.013754 -0.253356 0.012718
vn -0.008943 0.001107 0.089714
v 0.006000 -0.234718 0.014147
vn -1.962008 0.044482 2.220606
v -0.010632 -0.338330 0.008009
vn -0.071540 0.001622 0.080969
v -0.011216 -0.372526 0.008178
vn -1.659856 0.179517 -1.873955
v -0.010632 -0.338330 -0.001648
vn 0.165565 0.154672 -0.343472
v -0.003919 -0.353205 -0.009019
vn 0.182989 0.018234 0.000000
v 0.025842 -0.386886 0.008942
vn 0.227665 0.027949 0.181862
v 0.021174 -0.340039 0.007586
vn 0.553938 0.161631 1.890332
v 0.006000 -0.370131 0.020452
vn 0.260523 0.076017 0.889043
v 0.017812 -0.378509 0.017707
vn -0.015903 0.039813 0.499162
v -0.008879 -0.388938 0.021478
vn -0.083759 0.020526 0.084596
v 0.006000 -0.301399 0.014970
vn -0.866517 0.198384 -0.017011
v -0.012391 -0.377167 0.013907
vn -0.143905 0.031227 0.115305
v -0.003198 -0.336963 0.014492
vn -1.571162 0.559766 0.000000
v -0.011216 -0.372526 -0.001817
vn -1.922040 0.625958 -1.165555
v -0.007256 -0.381415 -0.013121
vn -0.272455 0.281642 -1.005861
v 0.006000 -0.405352 -0.023414
vn 0.350959 0.126364 -0.770057
v 0.020879 -0.396121 -0.015118
vn 0.527049 0.189765 -1.156424
v 0.006000 -0.390306 -0.020945
vn 0.819250 0.431748 0.000000
v 0.025842 -0.386886 -0.002580
vn 0.581023 0.306201 0.000000
v 0.031970 -0.398514 0.010722
vn 0.654909 0.398445 0.348222
v 0.022051 -0.392871 0.022920
vn -0.993958 0.699173 1.677114
v 0.006000 -0.387229 0.027580
vn -0.312960 0.096282 0.294868
v -0.023764 -0.407746 0.011821
vn -1.189309 -0.676489 0.000000
v -0.020846 -0.412876 -0.004614
vn -0.579674 -0.426814 -0.589438
v -0.023764 -0.407746 -0.005459
vn -0.884241 -0.737328 -0.843899
v -0.011944 -0.406550 -0.018889
vn -0.119227 -0.290850 0.079237
v 0.028176 -0.406719 -0.003259
vn -0.467331 -1.140031 0.310582
v 0.020788 -0.406891 -0.015007
vn 0.794682 -0.367462 0.000000
v 0.031970 -0.398514 -0.004361
vn 0.816517 -0.431347 0.863513
v 0.019616 -0.403472 0.019927
vn 0.387398 -0.956088 1.372131
v -0.010321 -0.400052 0.023253
vn 0.000000 -0.747215 0.000000
v -0.009466 -0.412876 -0.001310
vn 0.000000 -0.747215 0.000000
v -0.020846 -0.412876 0.010974
vn 0.399306 -0.860014 0.534817
v -0.004190 -0.408089 -0.009352
vn 0.147884 -0.469563 1.366881
v 0.006000 -0.415269 -0.017380
vn 0.243922 -0.374918 0.176368
v 0.006000 -0.403302 -0.013269
vn 0.304338 -0.467780 0.220052
v -0.009058 -0.414073 -0.015340
vn -0.125319 -0.270214 0.786584
v 0.018263 -0.405010 -0.011902
vn 0.305341 -1.689447 0.142850
v 0.016505 -0.409115 0.006230
vn 0.181924 -0.673009 0.363105
v 0.028176 -0.406719 0.009620
vn -0.010050 -0.697221 0.711172
v -0.002870 -0.410539 0.013503
vn -0.003652 -0.253377 0.258447
v 0.006000 -0.400223 0.023742
vn -0.343360 -0.421039 0.413276
v -0.009466 -0.412876 0.007671
vn -0.129264 -0.158508 0.155585
v -0.005542 -0.406550 0.017376
vn 0.030621 -0.856134 0.000000
v -0.006558 -0.412772 0.010193
vn 0.249277 -1.013871 -0.131044
v -0.006558 -0.412772 0.003417
vn -0.961070 -1.106786 0.690515
v 0.006000 -0.400565 -0.008882
vn -0.636362 -1.055797 -0.415644
v 0.013214 -0.404839 -0.005692
vn -0.577390 -1.182130 0.000000
v 0.016505 -0.409115 0.000131
vn -0.450202 -1.046886 -0.210621
v 0.013574 -0.409115 0.012495
vn -0.205906 -1.040403 -0.405706
v 0.006000 -0.409115 0.016339
vn 0.443887 -0.632467 0.068725
v 0.006000 -0.403984 0.003181
vn 0.747772 -0.631507 -0.178988
v -0.001574 -0.410312 -0.006135
# 145 vertices, 0 vertices normals

f 4//4 6//6 1//1
f 5//5 4//4 1//1
f 4//4 2//2 6//6
f 3//3 2//2 4//4
f 5//5 3//3 4//4
f 6//6 13//13 1//1
f 2//2 15//15 6//6
f 6//6 15//15 13//13
f 7//7 5//5 1//1
f 8//8 7//7 1//1
f 16//16 8//8 1//1
f 17//17 16//16 1//1
f 9//9 17//17 1//1
f 10//10 9//9 1//1
f 13//13 10//10 1//1
f 12//12 3//3 5//5
f 7//7 12//12 5//5
f 2//2 23//23 15//15
f 11//11 23//23 2//2
f 3//3 11//11 2//2
f 25//25 11//11 3//3
f 12//12 25//25 3//3
f 13//13 14//14 10//10
f 15//15 14//14 13//13
f 23//23 27//27 15//15
f 15//15 27//27 14//14
f 22//22 12//12 7//7
f 8//8 22//22 7//7
f 18//18 22//22 8//8
f 16//16 18//18 8//8
f 16//16 17//17 18//18
f 19//19 20//20 17//17
f 9//9 19//19 17//17
f 17//17 20//20 18//18
f 30//30 19//19 9//9
f 10//10 30//30 9//9
f 14//14 30//30 10//10
f 21//21 25//25 12//12
f 22//22 21//21 12//12
f 23//23 32//32 27//27
f 24//24 32//32 23//23
f 11//11 24//24 23//23
f 33//33 24//24 11//11
f 25//25 33//33 11//11
f 26//26 33//33 25//25
f 21//21 26//26 25//25
f 14//14 37//37 30//30
f 27//27 37//37 14//14
f 32//32 31//31 27//27
f 27//27 31//31 37//37
f 28//28 21//21 22//22
f 18//18 28//28 22//22
f 39//39 28//28 18//18
f 20//20 39//39 18//18
f 19//19 39//39 20//20
f 19//19 29//29 39//39
f 43//43 29//29 19//19
f 30//30 43//43 19//19
f 37//37 43//43 30//30
f 44//44 26//26 21//21
f 28//28 44//44 21//21
f 32//32 38//38 31//31
f 32//32 45//45 38//38
f 24//24 45//45 32//32
f 24//24 34//34 45//45
f 33//33 34//34 24//24
f 33//33 35//35 34//34
f 26//26 35//35 33//33
f 36//36 35//35 26//26
f 44//44 36//36 26//26
f 37//37 42//42 43//43
f 31//31 42//42 37//37
f 38//38 49//49 31//31
f 31//31 49//49 42//42
f 40//40 44//44 28//28
f 39//39 40//40 28//28
f 41//41 40//40 39//39
f 29//29 41//41 39//39
f 52//52 41//41 29//29
f 43//43 52//52 29//29
f 42//42 52//52 43//43
f 48//48 36//36 44//44
f 40//40 48//48 44//44
f 38//38 53//53 49//49
f 38//38 54//54 53//53
f 45//45 54//54 38//38
f 45//45 46//46 54//54
f 34//34 46//46 45//45
f 34//34 47//47 46//46
f 35//35 47//47 34//34
f 57//57 47//47 35//35
f 36//36 57//57 35//35
f 58//58 57//57 36//36
f 48//48 58//58 36//36
f 42//42 50//50 52//52
f 49//49 50//50 42//42
f 53//53 61//61 49//49
f 49//49 61//61 50//50
f 63//63 48//48 40//40
f 41//41 63//63 40//40
f 51//51 63//63 41//41
f 52//52 51//51 41//41
f 50//50 51//51 52//52
f 64//64 58//58 48//48
f 63//63 64//64 48//48
f 53//53 60//60 61//61
f 67//67 60//60 53//53
f 54//54 67//67 53//53
f 68//68 67//67 54//54
f 46//46 68//68 54//54
f 55//55 68//68 46//46
f 47//47 55//55 46//46
f 56//56 55//55 47//47
f 57//57 56//56 47//47
f 56//56 57//57 58//58
f 71//71 59//59 58//58
f 64//64 71//71 58//58
f 59//59 56//56 58//58
f 50//50 75//75 51//51
f 61//61 75//75 50//50
f 60//60 77//77 61//61
f 61//61 77//77 75//75
f 62//62 64//64 63//63
f 51//51 62//62 63//63
f 75//75 62//62 51//51
f 79//79 71//71 64//64
f 62//62 79//79 64//64
f 60//60 82//82 77//77
f 66//66 82//82 60//60
f 67//67 66//66 60//60
f 65//65 66//66 67//67
f 68//68 65//65 67//67
f 69//69 65//65 68//68
f 55//55 69//69 68//68
f 70//70 69//69 55//55
f 56//56 70//70 55//55
f 74//74 70//70 56//56
f 59//59 74//74 56//56
f 59//59 71//71 72//72
f 72//72 71//71 79//79
f 73//73 74//74 59//59
f 59//59 72//72 73//73
f 75//75 78//78 62//62
f 77//77 78//78 75//75
f 82//82 76//76 77//77
f 77//77 76//76 78//78
f 78//78 79//79 62//62
f 84//84 86//86 79//79
f 78//78 84//84 79//79
f 86//86 72//72 79//79
f 82//82 81//81 76//76
f 80//80 81//81 82//82
f 66//66 80//80 82//82
f 91//91 80//80 66//66
f 65//65 91//91 66//66
f 92//92 91//91 65//65
f 69//69 92//92 65//65
f 93//93 92//92 69//69
f 70//70 93//93 69//69
f 83//83 93//93 70//70
f 74//74 83//83 70//70
f 94//94 83//83 74//74
f 73//73 94//94 74//74
f 73//73 72//72 86//86
f 85//85 73//73 86//86
f 96//96 94//94 73//73
f 85//85 96//96 73//73
f 76//76 84//84 78//78
f 81//81 88//88 76//76
f 76//76 88//88 84//84
f 84//84 85//85 86//86
f 84//84 97//97 85//85
f 88//88 97//97 84//84
f 81//81 87//87 88//88
f 89//89 87//87 81//81
f 80//80 89//89 81//81
f 99//99 89//89 80//80
f 91//91 99//99 80//80
f 90//90 99//99 91//91
f 92//92 90//90 91//91
f 103//103 90//90 92//92
f 93//93 103//103 92//92
f 105//105 103//103 93//93
f 83//83 105//105 93//93
f 95//95 105//105 83//83
f 94//94 95//95 83//83
f 106//106 95//95 94//94
f 96//96 106//106 94//94
f 97//97 96//96 85//85
f 107//107 106//106 96//96
f 97//97 107//107 96//96
f 87//87 110//110 88//88
f 88//88 110//110 97//97
f 110//110 107//107 97//97
f 87//87 109//109 110//110
f 111//111 109//109 87//87
f 89//89 111//111 87//87
f 98//98 111//111 89//89
f 99//99 98//98 89//89
f 101//101 98//98 99//99
f 90//90 101//101 99//99
f 100//100 101//101 90//90
f 103//103 100//100 90//90
f 102//102 100//100 103//103
f 105//105 102//102 103//103
f 104//104 105//105 95//95
f 105//105 104//104 102//102
f 117//117 115//115 95//95
f 106//106 117//117 95//95
f 104//104 95//95 115//115
f 118//118 117//117 106//106
f 107//107 118//118 106//106
f 110//110 108//108 107//107
f 108//108 118//118 107//107
f 109//109 108//108 110//110
f 109//109 120//120 108//108
f 121//121 120//120 109//109
f 111//111 121//121 109//109
f 112//112 121//121 111//111
f 98//98 112//112 111//111
f 113//113 112//112 98//98
f 101//101 113//113 98//98
f 114//114 113//113 101//101
f 100//100 114//114 101//101
f 123//123 114//114 100//100
f 102//102 123//123 100//100
f 125//125 123//123 102//102
f 115//115 125//125 102//102
f 104//104 115//115 102//102
f 117//117 116//116 115//115
f 129//129 116//116 117//117
f 118//118 129//129 117//117
f 116//116 125//125 115//115
f 108//108 127//127 118//118
f 127//127 129//129 118//118
f 120//120 127//127 108//108
f 120//120 130//130 127//127
f 119//119 130//130 120//120
f 121//121 119//119 120//120
f 132//132 119//119 121//121
f 112//112 132//132 121//121
f 122//122 132//132 112//112
f 113//113 122//122 112//112
f 134//134 122//122 113//113
f 114//114 134//134 113//113
f 136//136 134//134 114//114
f 123//123 136//136 114//114
f 135//135 136//136 123//123
f 125//125 135//135 123//123
f 124//124 135//135 125//125
f 116//116 124//124 125//125
f 126//126 124//124 116//116
f 129//129 126//126 116//116
f 127//127 128//128 129//129
f 128//128 126//126 129//129
f 130//130 128//128 127//127
f 130//130 140//140 128//128
f 141//141 140//140 130//130
f 119//119 141//141 130//130
f 131//131 141//141 119//119
f 132//132 131//131 119//119
f 142//142 131//131 132//132
f 122//122 142//142 132//132
f 143//143 142//142 122//122
f 134//134 143//143 122//122
f 133//133 143//143 134//134
f 136//136 133//133 134//134
f 137//137 133//133 136//136
f 135//135 137//137 136//136
f 138//138 137//137 135//135
f 124//124 138//138 135//135
f 145//145 138//138 124//124
f 126//126 145//145 124//124
f 128//128 139//139 126//126
f 139//139 145//145 126//126
f 140//140 139//139 128//128
f 140//140 144//144 139//139
f 141//141 144//144 140//140
f 131//131 144//144 141//141
f 142//142 144//144 131//131
f 143//143 144//144 142//142
f 133//133 144//144 143//143
f 137//137 144//144 133//133
f 138//138 144//144 137//137
f 145//145 144//144 138//138
f 139//139 144//144 145//145
# 286 faces, 0 coords texture

# End of File
